<?xml version="1.0" encoding="UTF-8" standalone="no"?>
<!DOCTYPE svg PUBLIC "-//W3C//DTD SVG 1.1//EN"
 "http://www.w3.org/Graphics/SVG/1.1/DTD/svg11.dtd">
<!-- Generated by graphviz version 9.0.0 (20230911.1827)
 -->
<!-- Pages: 1 -->
<svg width="576pt" height="332pt"
 viewBox="0.00 0.00 575.84 332.00" xmlns="http://www.w3.org/2000/svg" xmlns:xlink="http://www.w3.org/1999/xlink">
<g id="graph0" class="graph" transform="scale(1 1) rotate(0) translate(4 328)">
<polygon fill="white" stroke="none" points="-4,4 -4,-328 571.84,-328 571.84,4 -4,4"/>
<!-- [root] azurerm_network_security_group.nsg (expand) -->
<g id="node1" class="node">
<title>[root] azurerm_network_security_group.nsg (expand)</title>
<polygon fill="none" stroke="black" points="289.67,-108 62.17,-108 62.17,-72 289.67,-72 289.67,-108"/>
<text text-anchor="middle" x="175.92" y="-84.58" font-family="Times New Roman,serif" font-size="14.00">azurerm_network_security_group.nsg</text>
</g>
<!-- [root] provider[&quot;registry.terraform.io/hashicorp/azurerm&quot;] -->
<g id="node4" class="node">
<title>[root] provider[&quot;registry.terraform.io/hashicorp/azurerm&quot;]</title>
<polygon fill="none" stroke="black" points="283.92,-36 0,-18 283.92,0 567.84,-18 283.92,-36"/>
<text text-anchor="middle" x="283.92" y="-12.58" font-family="Times New Roman,serif" font-size="14.00">provider[&quot;registry.terraform.io/hashicorp/azurerm&quot;]</text>
</g>
<!-- [root] azurerm_network_security_group.nsg (expand)&#45;&gt;[root] provider[&quot;registry.terraform.io/hashicorp/azurerm&quot;] -->
<g id="edge1" class="edge">
<title>[root] azurerm_network_security_group.nsg (expand)&#45;&gt;[root] provider[&quot;registry.terraform.io/hashicorp/azurerm&quot;]</title>
<path fill="none" stroke="black" d="M202.9,-71.52C217.14,-62.28 234.77,-50.85 249.95,-41.02"/>
<polygon fill="black" stroke="black" points="251.74,-44.03 258.23,-35.65 247.94,-38.15 251.74,-44.03"/>
</g>
<!-- [root] azurerm_resource_group.rg (expand) -->
<g id="node2" class="node">
<title>[root] azurerm_resource_group.rg (expand)</title>
<polygon fill="none" stroke="black" points="478.55,-108 307.3,-108 307.3,-72 478.55,-72 478.55,-108"/>
<text text-anchor="middle" x="392.92" y="-84.58" font-family="Times New Roman,serif" font-size="14.00">azurerm_resource_group.rg</text>
</g>
<!-- [root] azurerm_resource_group.rg (expand)&#45;&gt;[root] provider[&quot;registry.terraform.io/hashicorp/azurerm&quot;] -->
<g id="edge2" class="edge">
<title>[root] azurerm_resource_group.rg (expand)&#45;&gt;[root] provider[&quot;registry.terraform.io/hashicorp/azurerm&quot;]</title>
<path fill="none" stroke="black" d="M365.7,-71.52C351.32,-62.28 333.52,-50.85 318.21,-41.02"/>
<polygon fill="black" stroke="black" points="320.15,-38.1 309.84,-35.65 316.36,-43.99 320.15,-38.1"/>
</g>
<!-- [root] azurerm_virtual_network.vnet (expand) -->
<g id="node3" class="node">
<title>[root] azurerm_virtual_network.vnet (expand)</title>
<polygon fill="none" stroke="black" points="458.42,-180 277.42,-180 277.42,-144 458.42,-144 458.42,-180"/>
<text text-anchor="middle" x="367.92" y="-156.57" font-family="Times New Roman,serif" font-size="14.00">azurerm_virtual_network.vnet</text>
</g>
<!-- [root] azurerm_virtual_network.vnet (expand)&#45;&gt;[root] azurerm_resource_group.rg (expand) -->
<g id="edge3" class="edge">
<title>[root] azurerm_virtual_network.vnet (expand)&#45;&gt;[root] azurerm_resource_group.rg (expand)</title>
<path fill="none" stroke="black" d="M374.1,-143.7C376.8,-136.15 380.02,-127.12 383.04,-118.68"/>
<polygon fill="black" stroke="black" points="386.24,-120.12 386.3,-109.53 379.64,-117.77 386.24,-120.12"/>
</g>
<!-- [root] provider[&quot;registry.terraform.io/hashicorp/azurerm&quot;] (close) -->
<g id="node5" class="node">
<title>[root] provider[&quot;registry.terraform.io/hashicorp/azurerm&quot;] (close)</title>
<ellipse fill="none" stroke="black" cx="283.92" cy="-234" rx="252.66" ry="18"/>
<text text-anchor="middle" x="283.92" y="-228.57" font-family="Times New Roman,serif" font-size="14.00">[root] provider[&quot;registry.terraform.io/hashicorp/azurerm&quot;] (close)</text>
</g>
<!-- [root] provider[&quot;registry.terraform.io/hashicorp/azurerm&quot;] (close)&#45;&gt;[root] azurerm_network_security_group.nsg (expand) -->
<g id="edge4" class="edge">
<title>[root] provider[&quot;registry.terraform.io/hashicorp/azurerm&quot;] (close)&#45;&gt;[root] azurerm_network_security_group.nsg (expand)</title>
<path fill="none" stroke="black" d="M270.68,-215.59C251.95,-190.97 217.6,-145.8 195.8,-117.14"/>
<polygon fill="black" stroke="black" points="198.69,-115.16 189.85,-109.32 193.12,-119.39 198.69,-115.16"/>
</g>
<!-- [root] provider[&quot;registry.terraform.io/hashicorp/azurerm&quot;] (close)&#45;&gt;[root] azurerm_virtual_network.vnet (expand) -->
<g id="edge5" class="edge">
<title>[root] provider[&quot;registry.terraform.io/hashicorp/azurerm&quot;] (close)&#45;&gt;[root] azurerm_virtual_network.vnet (expand)</title>
<path fill="none" stroke="black" d="M304.69,-215.7C314.88,-207.2 327.35,-196.81 338.5,-187.51"/>
<polygon fill="black" stroke="black" points="340.5,-190.41 345.94,-181.32 336.02,-185.03 340.5,-190.41"/>
</g>
<!-- [root] root -->
<g id="node6" class="node">
<title>[root] root</title>
<ellipse fill="none" stroke="black" cx="283.92" cy="-306" rx="50.07" ry="18"/>
<text text-anchor="middle" x="283.92" y="-300.57" font-family="Times New Roman,serif" font-size="14.00">[root] root</text>
</g>
<!-- [root] root&#45;&gt;[root] provider[&quot;registry.terraform.io/hashicorp/azurerm&quot;] (close) -->
<g id="edge6" class="edge">
<title>[root] root&#45;&gt;[root] provider[&quot;registry.terraform.io/hashicorp/azurerm&quot;] (close)</title>
<path fill="none" stroke="black" d="M283.92,-287.7C283.92,-280.41 283.92,-271.73 283.92,-263.54"/>
<polygon fill="black" stroke="black" points="287.42,-263.62 283.92,-253.62 280.42,-263.62 287.42,-263.62"/>
</g>
</g>
</svg>
